<svg width="1024" height="1025" viewBox="0 0 1024 1025" fill="none" xmlns="http://www.w3.org/2000/svg">
<path d="M909.6 855.119L649.9 595.419C690.2 543.319 712 479.619 712 412.619C712 332.419 680.7 257.219 624.1 200.519C567.5 143.819 492.1 112.619 412 112.619C331.9 112.619 256.5 143.919 199.9 200.519C143.2 257.119 112 332.419 112 412.619C112 492.719 143.3 568.119 199.9 624.719C256.5 681.419 331.8 712.619 412 712.619C479 712.619 542.6 690.819 594.7 650.619L854.4 910.219C855.162 910.981 856.066 911.586 857.061 911.998C858.056 912.41 859.123 912.623 860.2 912.623C861.277 912.623 862.344 912.41 863.339 911.998C864.334 911.586 865.238 910.981 866 910.219L909.6 866.719C910.362 865.958 910.966 865.054 911.379 864.058C911.791 863.063 912.003 861.996 912.003 860.919C912.003 859.842 911.791 858.775 911.379 857.78C910.966 856.785 910.362 855.881 909.6 855.119V855.119ZM570.4 571.019C528 613.319 471.8 636.619 412 636.619C352.2 636.619 296 613.319 253.6 571.019C211.3 528.619 188 472.419 188 412.619C188 352.819 211.3 296.519 253.6 254.219C296 211.919 352.2 188.619 412 188.619C471.8 188.619 528.1 211.819 570.4 254.219C612.7 296.619 636 352.819 636 412.619C636 472.419 612.7 528.719 570.4 571.019Z" fill="black"/>
</svg>
